<?xml version="1.0" encoding="UTF-8"?>
<svg width="200px" height="200px" viewBox="0 0 200 200" version="1.1" xmlns="http://www.w3.org/2000/svg" xmlns:xlink="http://www.w3.org/1999/xlink">
    <title>Profile Placeholder</title>
    <defs>
        <linearGradient x1="0%" y1="0%" x2="100%" y2="100%" id="linearGradient">
            <stop stop-color="#6366F1" offset="0%"></stop>
            <stop stop-color="#8B5CF6" offset="100%"></stop>
        </linearGradient>
    </defs>
    <g stroke="none" stroke-width="1" fill="none" fill-rule="evenodd">
        <rect fill="url(#linearGradient)" x="0" y="0" width="200" height="200" rx="100"></rect>
        <g transform="translate(40, 40)" fill="#FFFFFF" fill-rule="nonzero">
            <path d="M60,0 C26.9,0 0,26.9 0,60 C0,93.1 26.9,120 60,120 C93.1,120 120,93.1 120,60 C120,26.9 93.1,0 60,0 Z M60,18 C70.5,18 79,26.5 79,37 C79,47.5 70.5,56 60,56 C49.5,56 41,47.5 41,37 C41,26.5 49.5,18 60,18 Z M60,103.2 C45,103.2 31.8,95.4 24,83.4 C24.3,71.7 48,65.1 60,65.1 C72,65.1 95.7,71.7 96,83.4 C88.2,95.4 75,103.2 60,103.2 Z"></path>
        </g>
    </g>
</svg>
